<svg version="1.1" id="Layer_1" xmlns="http://www.w3.org/2000/svg" xmlns:xlink="http://www.w3.org/1999/xlink" x="0px" y="0px"
	 width="100%" viewBox="0 0 1024 1024" enable-background="new 0 0 1024 1024" xml:space="preserve">
<path fill="#000000" opacity="1.000000" stroke="none" 
	d="
M423.650208,590.366638 
	C401.126556,569.981140 386.213379,545.018372 375.710907,517.200806 
	C368.211426,497.337158 359.994232,477.909149 345.710327,461.692566 
	C342.430054,457.968445 338.940308,455.073425 334.111420,453.495483 
	C326.042786,450.858887 318.128296,447.746094 310.175415,444.763123 
	C308.363281,444.083405 306.249908,443.820923 305.033356,441.807953 
	C305.439911,438.916718 307.857391,437.453369 309.664490,435.616943 
	C314.014130,431.196594 318.860779,427.227203 324.359314,424.488892 
	C330.387604,421.486816 334.677521,417.162598 338.634766,411.809998 
	C353.561005,391.620483 379.191864,385.172089 405.185516,394.551849 
	C417.825531,399.112915 428.368927,406.867493 437.958160,416.046722 
	C444.580719,422.386078 451.046906,428.894989 458.805450,433.897278 
	C460.343628,434.888947 461.912750,435.850037 463.540710,436.682190 
	C472.907440,441.469910 474.446625,441.266785 481.281860,433.288818 
	C504.479828,406.212677 532.363464,384.708405 561.593018,364.638245 
	C602.016724,336.881775 641.399963,307.754028 675.914795,272.626801 
	C690.418762,257.865448 703.881165,242.216019 715.809204,225.277359 
	C716.745300,223.947952 717.441040,222.341721 719.841736,221.568008 
	C722.232971,226.098755 722.641602,231.186478 723.265564,236.111420 
	C726.919495,264.950317 718.387695,290.715057 703.120972,314.733368 
	C696.127258,325.736176 688.051941,335.892365 679.177795,345.428619 
	C678.290771,346.381775 677.125610,347.162628 676.766724,349.449219 
	C683.028687,347.717255 687.777405,343.947235 692.803162,340.869873 
	C698.054749,337.654327 703.180664,334.193756 708.113037,330.507782 
	C713.044617,326.822510 717.779236,322.850952 722.396423,318.774078 
	C726.926208,314.774445 731.199524,310.484344 736.303467,306.867767 
	C741.749756,361.033417 717.999390,398.853546 671.170898,424.196686 
	C688.594666,422.471527 704.189270,415.308655 720.625244,410.196869 
	C703.844788,460.738281 674.862671,497.362793 616.701111,501.516602 
	C624.365906,506.693207 632.893921,506.967499 641.492188,510.120239 
	C634.554443,518.913757 626.419312,524.425964 616.661072,527.817139 
	C606.498535,531.348755 596.739319,528.734375 586.165894,525.192322 
	C588.888672,531.045105 594.050110,533.298767 597.088745,538.183594 
	C588.009216,544.859253 576.633240,543.899841 566.846558,546.928955 
	C566.862244,549.862305 568.495483,550.968567 569.613281,552.353821 
	C609.288818,601.521790 658.075134,639.289551 714.187073,667.897217 
	C726.357727,674.102173 738.430664,680.501465 750.665955,686.574951 
	C754.260071,688.359070 755.108215,690.043640 753.270691,693.871277 
	C742.315979,716.690063 727.585388,736.643188 709.045288,753.869446 
	C705.949402,756.745911 704.409729,755.396301 702.233765,753.006348 
	C676.867493,725.145691 650.499023,698.258850 623.274536,672.214661 
	C616.050964,665.304260 608.604248,658.627319 601.289551,651.811523 
	C599.644287,650.278442 597.903259,649.344910 595.537537,649.287476 
	C572.510498,648.728882 549.731140,645.937683 527.199036,641.226929 
	C488.483948,633.132996 453.448914,617.461670 423.650208,590.366638 
M369.943634,416.465210 
	C368.735718,416.988922 367.399414,417.329224 366.342743,418.069000 
	C362.392670,420.834412 361.609528,426.430817 364.505280,430.349640 
	C367.302277,434.134827 373.049438,435.061737 376.944275,432.355804 
	C381.049988,429.503387 381.975464,424.125580 378.971588,420.124573 
	C376.919952,417.391937 373.965210,416.500519 369.943634,416.465210 
z"/>
<path fill="#000000" opacity="1.000000" stroke="none" 
	d="
M518.122314,383.142487 
	C502.472076,395.704529 488.336243,409.321350 475.949951,424.672150 
	C473.050873,428.265106 470.473907,428.501282 466.642273,426.202362 
	C457.366577,420.637207 450.058990,412.882141 442.478668,405.396698 
	C440.651276,403.592163 441.294250,401.872162 442.221527,399.966400 
	C448.994324,386.046448 455.825836,372.153870 462.454895,358.165497 
	C474.777924,332.161926 483.876801,305.120697 488.250427,276.593231 
	C488.451630,275.280701 488.740143,273.979370 489.048431,272.687225 
	C489.115753,272.405060 489.442169,272.184692 490.272156,271.187317 
	C501.140320,280.202454 507.645752,291.698090 511.174500,305.115997 
	C514.718323,318.591278 512.589722,332.011169 510.532532,345.568298 
	C517.924133,337.286011 521.830444,327.266876 526.167236,317.707214 
	C528.873230,317.546082 529.621338,319.502380 530.647217,320.877625 
	C538.642822,331.596161 543.960449,343.474121 546.105286,356.740631 
	C546.699707,360.417419 545.753540,362.871002 542.507812,365.123993 
	C534.305847,370.817535 526.418030,376.963623 518.122314,383.142487 
z"/>
<path fill="#000000" opacity="1.000000" stroke="none" 
	d="
M401.418579,650.281250 
	C391.063965,673.412964 378.541626,694.736389 361.413757,713.070557 
	C354.170319,720.824219 345.968506,727.266602 335.209595,729.579407 
	C317.522247,733.381653 303.677948,718.915039 308.294678,701.390686 
	C311.670532,688.576538 320.508606,679.758301 330.535614,672.106323 
	C349.344177,657.752930 370.117340,646.937927 392.514282,639.321594 
	C395.666107,638.249756 399.464294,635.963806 402.350067,639.152771 
	C405.471252,642.601807 402.711548,646.369568 401.418579,650.281250 
z"/>
<path fill="#000000" opacity="1.000000" stroke="none" 
	d="
M365.176788,719.290710 
	C378.174652,696.164978 395.518616,677.282410 415.671814,660.831848 
	C416.058075,660.516541 416.448242,660.197083 416.872559,659.938660 
	C419.509033,658.332886 421.980682,655.488220 425.405121,657.197937 
	C428.844482,658.915039 428.281738,662.540527 428.212708,665.648804 
	C427.619202,692.375793 422.244995,718.064758 411.026917,742.395020 
	C407.224548,750.641785 402.118835,758.036316 394.260162,763.045715 
	C386.416321,768.045654 378.010223,769.334229 369.648834,764.888123 
	C361.474182,760.541138 358.857330,752.842163 358.622253,743.944397 
	C358.390167,735.159607 361.150940,727.273438 365.176788,719.290710 
z"/>
<path fill="#000000" opacity="1.000000" stroke="none" 
	d="
M368.142242,610.856201 
	C372.956268,610.820312 377.299744,610.589661 381.617645,610.826111 
	C388.105988,611.181274 389.941254,614.882263 386.081329,620.071045 
	C376.653198,632.744751 364.787292,642.993164 352.541779,652.785828 
	C342.104828,661.132202 331.022125,668.569336 318.663269,673.798584 
	C310.781616,677.133545 302.614716,679.286865 293.864075,677.414551 
	C276.266327,673.649231 269.543945,655.430115 280.577057,641.143860 
	C286.569366,633.384766 294.680603,628.530640 303.542633,624.825500 
	C324.052948,616.250183 345.613312,612.424683 368.142242,610.856201 
z"/>
<path fill="#000000" opacity="1.000000" stroke="none" 
	d="
M315.831085,616.103760 
	C304.987976,618.451416 294.552002,620.467468 283.803833,618.288208 
	C270.133575,615.516479 262.051086,606.117371 262.731598,593.411255 
	C263.184265,584.959534 268.064819,579.240784 274.924591,575.080872 
	C283.244415,570.035522 292.572937,568.219055 302.120941,567.750793 
	C326.657349,566.547729 350.548676,570.302979 373.873383,577.801453 
	C377.397552,578.934387 382.065521,579.596252 382.539490,584.201416 
	C382.983917,588.519653 378.726044,590.144592 375.709656,591.981201 
	C357.213287,603.243347 337.146301,610.683777 315.831085,616.103760 
z"/>
<path fill="#000000" opacity="1.000000" stroke="none" 
	d="
M643.688232,538.360840 
	C646.367493,528.036072 653.530151,522.290344 662.593506,522.784729 
	C671.313354,523.260437 678.139648,529.748535 679.574463,538.924500 
	C681.055481,548.396240 673.867004,557.529846 663.748901,559.032104 
	C654.292480,560.436218 644.759521,553.197754 643.744507,543.781189 
	C643.567139,542.135742 643.678467,540.459290 643.688232,538.360840 
z"/>
<path fill="#000000" opacity="1.000000" stroke="none" 
	d="
M705.708618,525.135254 
	C695.587891,527.043823 688.027100,523.410522 684.387085,515.168274 
	C680.968445,507.427277 682.787415,498.846039 688.892212,493.914337 
	C695.739563,488.382751 705.140869,488.164062 711.935120,493.414948 
	C722.488586,501.571167 720.696960,520.473694 705.708618,525.135254 
z"/>
<path fill="#000000" opacity="1.000000" stroke="none" 
	d="
M739.531128,484.006714 
	C730.187988,486.935120 722.223633,484.080811 718.135010,476.625336 
	C714.171753,469.398468 715.463074,460.949432 721.340515,455.652649 
	C727.606506,450.005707 736.428101,449.649628 743.346375,454.764282 
	C753.753540,462.458252 751.973328,477.496460 739.531128,484.006714 
z"/>
<path fill="#000000" opacity="1.000000" stroke="none" 
	d="
M630.946289,578.113159 
	C623.001587,582.185059 615.518005,581.106262 611.277405,575.526001 
	C606.681274,569.477966 606.878235,561.773193 611.830872,556.254395 
	C615.769043,551.865967 620.703979,550.444458 626.330933,551.975769 
	C631.481262,553.377319 633.190491,557.268005 634.376709,562.269653 
	C635.793762,568.244751 637.271729,573.654724 630.946289,578.113159 
z"/>
<path fill="#000000" opacity="1.000000" stroke="none" 
	d="
M748.489746,439.125885 
	C740.832947,436.263550 738.108826,432.244843 738.678101,425.187714 
	C739.112000,419.808167 742.636841,415.713837 747.747192,414.725830 
	C752.895752,413.730438 757.359070,414.913727 760.570679,419.257538 
	C763.690552,423.477325 764.313599,428.095673 761.821350,432.828461 
	C759.089722,438.015717 754.541992,439.779114 748.489746,439.125885 
z"/>
</svg>